<?xml version="1.0" encoding="UTF-8" standalone="no"?>
<!-- Created with Inkscape (http://www.inkscape.org/) -->

<svg
   version="1.1"
   id="svg132"
   width="5379"
   height="2442"
   viewBox="0 0 5379 2442"
   xmlns:xlink="http://www.w3.org/1999/xlink"
   xmlns="http://www.w3.org/2000/svg"
   xmlns:svg="http://www.w3.org/2000/svg"
   xmlns:rdf="http://www.w3.org/1999/02/22-rdf-syntax-ns#"
   xmlns:cc="http://creativecommons.org/ns#"
   xmlns:dc="http://purl.org/dc/elements/1.1/">
  <title
     id="title894">Cestičky pro web tulabu</title>
  <defs
     id="defs136" />
  <g
     id="g138">
    <path
       style="fill-opacity:0;stroke:#3b49ce;stroke-width:2.5;stroke-linecap:round"
       d="m 3050.4083,1286.3789 -39.4052,8.8385 -31.3032,-128.5274 39.0369,-11.7847 z"
       id="budova_f3" />
    <path
       style="fill-opacity:0;stroke:#3b49ce;stroke-width:2.5;stroke-linecap:round"
       d="m 2756.8945,1357.8239 -31.3033,-127.7908 39.4053,-9.9434 30.1984,126.686 z"
       id="budova_f1" />
    <path
       style="fill-opacity:0;stroke:#3b49ce;stroke-width:2.5;stroke-linecap:round"
       d="m 2827.6029,1315.8408 -25.0425,-105.3262 140.3121,-34.6177 27.6205,107.5358 z"
       id="budova_f2" />
    <path
       style="fill-opacity:0;stroke:#3b49ce;stroke-width:2.5;stroke-linecap:round"
       d="m 3086.8674,1276.0672 45.2976,-11.0482 0.7366,-8.102 -4.051,-12.5213 14.7309,-3.3144 -27.2522,-107.1676 51.5582,-12.5213 11.4165,-41.2466 -0.3683,-38.6687 -11.0482,-32.0398 -41.9831,7.3655 -14.731,-60.02858 -50.8217,9.20683 -9.5751,-36.45906 -46.0342,11.0482 z"
       id="budova_g" />
    <path
       style="fill-opacity:0;stroke:#3b49ce;stroke-width:2.5;stroke-linecap:round"
       d="m 2959.8131,1085.3016 36.8273,-8.102 3.3145,-5.8924 -29.8302,-120.79363 -40.51,8.47029 z"
       id="budova_e3" />
    <path
       style="fill-opacity:0;stroke:#3b49ce;stroke-width:2.5;stroke-linecap:round"
       d="m 2780.464,1129.4944 142.5218,-34.2494 -30.5667,-123.0033 -141.7853,35.7225 z"
       id="budova_e2" />
    <path
       style="fill-opacity:0;stroke:#3b49ce;stroke-width:2.5;stroke-linecap:round"
       d="m 2704.2314,1148.6446 35.7225,-6.9971 5.1558,-10.3117 -39.4052,-154.67482 -40.1418,8.83856 z"
       id="budova_e1" />
    <path
       style="fill-opacity:0;stroke:#3b49ce;stroke-width:2.5;stroke-linecap:round"
       d="m 2689.5004,1154.1687 0.7366,9.9434 3.6827,8.102 8.8386,6.9972 9.5751,1.1049 13.9944,0.3682 15.4675,-5.8923 13.2578,-9.2069 10.3116,-9.5751 6.2607,-13.9944 1.1048,-7.3654 z"
       id="budova_ic" />
    <path
       style="fill-opacity:0;stroke:#3b49ce;stroke-width:2.5;stroke-linecap:round"
       d="m 2458.9613,1170.0045 8.8386,40.5101 121.1619,-32.0398 -12.5213,-50.8217 -28.357,6.6289 2.5779,16.9406 -63.343,15.8357 -0.7366,-5.1558 z"
       id="budova_b" />
    <path
       style="fill-opacity:0;stroke:#3b49ce;stroke-width:2.5;stroke-linecap:round"
       d="m 2436.1284,1079.041 21.7281,89.4904 41.2466,-10.6799 -23.2012,-88.7539 z"
       id="budova_d" />
    <path
       style="fill-opacity:0;stroke:#3b49ce;stroke-width:2.5;stroke-linecap:round"
       d="m 2214.0595,1297.0588 42.3514,-11.0482 -2.5779,-15.8357 159.4624,-39.4053 -22.4647,-95.0145 -69.9719,14.7309 1.4731,11.0482 -10.6799,4.051 -1.8414,3.6828 3.6827,18.0454 17.3089,-2.2097 5.8923,22.833 -51.19,10.6799 -2.2096,-9.9434 -16.5723,4.4193 -6.9972,0.7365 -11.4165,-48.9803 -61.5016,15.8357 8.4703,37.9322 12.8895,-2.9462 10.68,50.4535 -13.6262,3.6827 z"
       id="budova_a" />
    <path
       style="fill-opacity:0;stroke:#3b49ce;stroke-width:2.5;stroke-linecap:round"
       d="m 2479.9529,1027.851 16.204,67.7623 79.1788,-21.3599 2.2096,6.9972 6.6289,-2.2096 15.0993,68.1306 36.8273,-8.1021 -24.306,-116.0061 -40.5101,10.68 -50.8217,15.0992 -1.8414,0.7365 -7.3655,-27.9888 z"
       id="budova_c" />
    <path
       style="fill-opacity:0;stroke:#3b49ce;stroke-width:2.5;stroke-linecap:round"
       d="m 2304.4706,1183.8148 7.1814,30.0142 -44.7453,10.4958 -5.8923,-29.8301 z"
       id="tulab" />
  </g>
  <metadata
     id="metadata892">
    <rdf:RDF>
      <cc:Work
         rdf:about="">
        <dc:title>Cestičky pro web tulabu</dc:title>
        <dc:date>15.11.2022 19:00</dc:date>
        <dc:creator>
          <cc:Agent>
            <dc:title>Frodo Laggins</dc:title>
          </cc:Agent>
        </dc:creator>
        <dc:rights>
          <cc:Agent>
            <dc:title>Čestná</dc:title>
          </cc:Agent>
        </dc:rights>
        <dc:publisher>
          <cc:Agent>
            <dc:title>Frodo Laggins</dc:title>
          </cc:Agent>
        </dc:publisher>
        <dc:source>PC Froda</dc:source>
        <dc:relation>Komplikovaný</dc:relation>
        <dc:language>Český</dc:language>
        <dc:coverage>Koleje TUL</dc:coverage>
        <cc:license
           rdf:resource="http://artlibre.org/licence/lal" />
      </cc:Work>
      <cc:License
         rdf:about="http://artlibre.org/licence/lal">
        <cc:permits
           rdf:resource="http://creativecommons.org/ns#Reproduction" />
        <cc:permits
           rdf:resource="http://creativecommons.org/ns#Distribution" />
        <cc:permits
           rdf:resource="http://creativecommons.org/ns#DerivativeWorks" />
        <cc:requires
           rdf:resource="http://creativecommons.org/ns#ShareAlike" />
        <cc:requires
           rdf:resource="http://creativecommons.org/ns#Notice" />
        <cc:requires
           rdf:resource="http://creativecommons.org/ns#Attribution" />
      </cc:License>
    </rdf:RDF>
  </metadata>
</svg>
