<?xml version="1.0" standalone="no"?>
<!DOCTYPE svg PUBLIC "-//W3C//DTD SVG 20010904//EN"
 "http://www.w3.org/TR/2001/REC-SVG-20010904/DTD/svg10.dtd">
<svg version="1.0" xmlns="http://www.w3.org/2000/svg"
 width="2731.000000pt" height="2731.000000pt" viewBox="0 0 2731.000000 2731.000000"
 preserveAspectRatio="xMidYMid meet">
<metadata>
Created by potrace 1.14, written by Peter Selinger 2001-2017
</metadata>
<g transform="translate(0.000000,2731.000000) scale(0.100000,-0.100000)"
fill="#000000" stroke="none">
<path d="M6765 17768 c-16 -5 -37 -12 -45 -15 -8 -4 -18 -5 -22 -5 -5 1 -8 -3
-8 -9 0 -5 -5 -7 -10 -4 -6 3 -13 -1 -16 -9 -3 -9 -9 -14 -13 -11 -12 7 -100
-84 -137 -141 -19 -29 -35 -65 -36 -79 -1 -14 -5 -25 -8 -25 -10 0 -13 -601
-14 -2315 0 -1523 3 -1908 18 -1995 3 -14 7 -43 11 -65 3 -22 8 -50 10 -62 3
-13 7 -35 10 -50 17 -87 87 -274 149 -398 41 -83 134 -231 161 -258 8 -9 15
-18 15 -21 0 -14 160 -178 223 -229 22 -18 45 -37 52 -44 48 -46 395 -246 395
-228 0 2 24 -7 53 -19 85 -38 239 -80 332 -91 87 -11 161 -14 330 -14 227 0
262 4 475 54 8 2 49 14 90 28 67 22 100 35 203 80 15 7 27 15 27 19 0 5 6 8
13 8 15 0 155 86 190 116 13 12 31 25 40 30 36 21 181 158 262 248 39 43 98
120 131 171 21 33 42 62 47 63 4 2 7 8 7 12 0 5 14 33 31 62 18 29 32 59 32
66 0 6 4 12 8 12 4 0 10 12 15 28 4 15 8 29 9 32 2 6 23 56 37 85 5 12 10 27
12 35 2 8 6 22 9 30 6 15 36 130 42 160 1 8 6 35 10 60 4 25 9 54 11 65 20
100 24 343 25 1695 1 1505 1 1459 -7 1471 -2 4 -1 10 3 12 5 3 6 113 3 246 -3
133 -1 241 3 241 5 0 5 5 2 11 -4 6 -8 153 -9 327 -1 315 -2 317 -26 367 -31
63 -41 76 -117 152 -80 79 -144 105 -258 104 -44 0 -87 -2 -95 -4 -158 -39
-224 -94 -298 -247 l-31 -65 -6 -1765 c-6 -1721 -11 -2371 -19 -2477 -4 -49
-20 -114 -35 -138 -3 -5 -7 -18 -8 -27 -4 -24 -79 -164 -111 -208 -44 -58
-144 -155 -202 -194 -85 -58 -214 -111 -320 -132 -50 -10 -400 -12 -430 -3
-113 35 -219 73 -237 85 -12 8 -29 14 -38 14 -8 0 -15 4 -15 10 0 5 -16 16
-35 24 -19 8 -35 20 -35 25 0 6 -6 11 -12 11 -18 0 -125 107 -157 155 -14 22
-29 42 -32 45 -8 6 -56 109 -59 125 -1 6 -5 15 -10 20 -4 6 -20 48 -35 95
l-28 85 -3 415 c-5 485 -4 412 -1 535 1 55 -2 103 -7 106 -5 4 -5 12 -1 19 11
17 12 160 2 160 -5 0 -5 5 -1 11 9 15 11 129 2 129 -4 0 -3 11 2 25 6 16 6 25
0 25 -6 0 -6 9 -1 23 5 12 5 32 0 45 -5 12 -5 22 -1 22 6 0 7 55 2 70 -1 3 -2
8 -2 11 3 21 3 79 -1 107 -2 17 0 32 5 32 4 0 3 12 -2 26 -7 17 -7 31 -1 38 6
6 6 17 2 24 -4 7 -5 33 -1 57 4 24 3 42 -2 39 -4 -3 -4 6 2 20 5 14 6 27 2 30
-9 5 -7 170 2 185 4 6 4 11 -1 11 -4 0 -8 470 -8 1045 l0 1045 -25 52 c-13 29
-28 55 -32 56 -4 2 -8 9 -8 16 0 35 -157 161 -207 167 -5 1 -17 6 -27 11 -26
14 -173 18 -211 6z"/>
<path d="M12715 17763 c-27 -7 -56 -14 -62 -15 -7 -1 -13 -5 -13 -10 0 -4 -6
-8 -13 -8 -24 0 -126 -101 -162 -161 -20 -32 -35 -61 -35 -64 1 -3 -5 -16 -12
-28 -12 -19 -14 -261 -13 -1582 0 -922 -3 -1565 -8 -1572 -5 -7 -6 -13 -1 -13
11 0 11 -930 1 -948 -5 -6 -5 -12 0 -12 4 0 8 -54 8 -120 0 -74 -4 -120 -10
-120 -7 0 -7 -3 0 -8 14 -10 14 -305 0 -314 -6 -5 -6 -8 0 -8 12 0 13 -358 2
-377 -5 -7 -5 -13 0 -13 4 0 8 -69 7 -152 0 -140 2 -158 23 -207 43 -96 123
-195 185 -227 50 -26 91 -33 223 -41 150 -8 2251 -8 2398 0 131 7 177 27 257
108 68 70 71 74 97 129 37 81 47 218 19 285 -10 22 -17 42 -18 45 -1 14 -72
104 -102 129 -10 9 -24 22 -32 29 -7 7 -42 29 -76 49 l-63 37 -315 2 c-173 1
-642 3 -1042 4 l-728 2 0 192 c-1 105 -2 835 -4 1622 -2 788 -7 1437 -10 1443
-4 6 -4 11 1 11 7 0 7 125 0 208 -2 17 1 32 5 32 5 0 4 9 -2 19 -5 11 -7 22
-2 24 4 3 5 39 2 81 -3 42 -2 76 2 76 4 0 3 13 -2 30 -5 18 -5 32 1 36 5 3 7
10 4 15 -4 5 -8 233 -10 506 -5 569 -8 630 -29 671 -23 45 -102 127 -154 162
-86 57 -224 80 -317 53z"/>
<path d="M19395 17770 c-149 -35 -258 -160 -345 -395 -12 -33 -28 -73 -35 -90
-7 -16 -29 -75 -48 -130 -50 -143 -106 -297 -114 -315 -3 -8 -7 -21 -9 -27 -3
-16 -51 -146 -70 -193 -8 -20 -16 -42 -18 -50 -2 -8 -8 -26 -13 -40 -6 -14
-18 -45 -26 -70 -8 -25 -50 -139 -92 -255 -42 -115 -86 -237 -97 -270 -11 -33
-25 -66 -31 -73 -5 -7 -7 -15 -4 -19 4 -3 3 -11 -2 -17 -5 -6 -26 -60 -46
-121 -21 -60 -41 -114 -45 -120 -9 -13 -34 -98 -32 -107 1 -5 -3 -8 -9 -8 -5
0 -8 -4 -5 -8 3 -5 -1 -20 -8 -34 -8 -14 -19 -43 -26 -65 -6 -21 -15 -47 -20
-58 -5 -11 -41 -110 -80 -220 -39 -110 -75 -209 -79 -220 -9 -20 -65 -175 -67
-185 0 -3 -4 -12 -7 -20 -9 -21 -68 -183 -71 -195 -2 -5 -8 -21 -13 -35 -6
-14 -9 -28 -6 -32 2 -5 -1 -8 -6 -8 -6 0 -10 -3 -9 -7 0 -5 -1 -15 -4 -23 -3
-8 -13 -37 -23 -65 -9 -27 -20 -59 -25 -70 -16 -39 -35 -90 -35 -95 0 -3 -3
-9 -6 -15 -4 -5 -10 -23 -14 -40 -11 -38 -14 -49 -42 -115 -3 -8 -7 -22 -9
-30 -2 -8 -22 -62 -44 -120 -23 -58 -42 -109 -43 -115 -2 -5 -6 -16 -10 -22
-5 -7 -6 -13 -2 -13 3 0 0 -10 -7 -22 -6 -13 -13 -28 -14 -35 -1 -6 -23 -69
-49 -139 -26 -70 -48 -132 -50 -138 -1 -6 -8 -24 -15 -41 -7 -16 -14 -34 -14
-40 -1 -5 -13 -41 -28 -80 -35 -93 -90 -244 -119 -330 -13 -38 -27 -71 -31
-73 -5 -2 -8 -11 -8 -20 0 -9 -16 -60 -36 -112 -20 -52 -37 -102 -39 -111 -2
-8 -11 -33 -21 -55 -9 -21 -18 -43 -19 -49 -2 -5 -19 -59 -40 -119 -20 -60
-38 -114 -39 -120 -11 -51 -19 -113 -17 -121 2 -5 4 -19 6 -30 8 -62 32 -111
81 -160 77 -79 119 -95 277 -102 178 -8 3724 -8 3905 0 166 8 191 16 267 92
84 82 112 163 93 260 -15 75 -19 90 -35 135 -8 25 -19 59 -23 75 -4 17 -29 89
-55 160 -26 72 -53 148 -60 170 -8 22 -30 85 -50 140 -75 203 -107 292 -133
370 -15 44 -31 83 -35 86 -5 3 -8 9 -7 13 2 11 -23 91 -32 101 -4 5 -8 15 -8
21 0 7 -5 25 -12 41 -6 15 -12 31 -12 35 -1 3 -4 10 -8 14 -5 4 -8 16 -8 26 0
10 -5 26 -10 36 -11 17 -77 202 -85 235 -2 9 -7 21 -10 27 -5 9 -140 375 -150
410 -5 15 -47 132 -58 160 -3 8 -38 105 -77 215 -39 110 -77 214 -85 230 -8
17 -16 42 -19 55 -5 23 -57 170 -76 215 -5 11 -23 61 -40 110 -38 108 -92 256
-124 345 -14 36 -28 76 -31 90 -4 14 -13 39 -20 55 -8 17 -41 109 -75 205 -34
96 -69 191 -77 210 -8 19 -16 42 -18 52 -3 14 -64 184 -82 228 -4 8 -7 17 -8
20 0 3 -9 30 -20 60 -11 30 -20 57 -20 60 -2 5 -4 10 -21 55 -4 11 -8 23 -9
28 -2 4 -4 9 -5 12 -1 3 -3 8 -5 13 -1 4 -7 21 -14 37 -7 17 -14 37 -16 45 -4
14 -37 106 -63 171 -6 15 -8 30 -5 33 4 3 1 6 -5 6 -7 0 -11 3 -10 8 2 4 -3
23 -11 42 -42 109 -99 271 -98 280 0 3 -6 16 -13 30 -8 14 -15 31 -16 38 -1 8
-9 28 -17 45 -8 18 -26 59 -40 92 -41 97 -78 157 -132 210 -40 41 -106 85
-135 90 -97 19 -176 25 -215 15z m150 -1785 c47 -132 81 -224 96 -260 10 -27
55 -153 85 -245 24 -70 29 -85 53 -142 5 -13 15 -41 22 -63 6 -22 16 -49 20
-60 27 -65 48 -125 43 -125 -3 0 1 -12 10 -27 8 -16 28 -66 44 -113 17 -47 56
-155 87 -240 31 -85 59 -164 62 -175 2 -11 9 -29 14 -40 10 -22 72 -194 95
-265 8 -25 19 -54 24 -65 5 -11 16 -40 24 -65 8 -25 34 -97 56 -160 23 -63 57
-160 77 -215 19 -55 40 -113 48 -130 7 -16 16 -41 20 -55 3 -14 10 -34 15 -45
11 -26 22 -57 26 -70 1 -5 16 -48 34 -95 17 -47 35 -98 41 -115 5 -16 13 -39
18 -50 12 -27 42 -113 45 -128 1 -6 7 -21 13 -32 6 -11 11 -23 11 -28 1 -7 34
-100 49 -137 3 -8 7 -22 9 -31 2 -9 13 -37 24 -63 11 -26 20 -55 20 -65 0 -9
4 -21 9 -26 5 -6 11 -21 13 -35 3 -26 9 -24 -94 -32 -20 -2 -34 1 -31 6 4 5 1
5 -8 0 -15 -10 -2329 -14 -2329 -4 0 3 -12 5 -27 4 -62 -2 -62 0 -31 89 15 45
31 89 35 97 3 8 7 20 9 25 1 6 17 48 35 95 17 47 37 103 44 125 8 22 41 114
75 205 34 91 62 170 63 175 2 10 20 58 37 100 4 11 23 63 41 115 18 52 37 106
42 120 6 14 11 28 12 33 2 4 4 9 5 12 1 3 3 8 5 13 1 4 4 14 7 22 26 69 102
281 126 350 17 47 37 103 45 125 15 41 23 64 26 77 1 4 11 29 22 55 12 27 22
55 23 63 1 8 5 22 9 30 7 16 66 179 71 195 2 6 5 17 9 25 9 24 18 55 18 57 0
2 8 23 19 48 11 25 19 46 19 48 0 3 4 15 35 100 14 37 23 67 19 67 -3 0 -1 6
5 13 5 6 22 47 36 91 15 43 32 90 38 105 6 14 12 31 13 36 2 6 32 91 68 190
36 99 68 191 72 205 4 14 11 30 15 35 4 6 11 24 15 40 10 36 10 36 18 55 4 8
20 51 36 95 16 44 34 94 41 110 6 17 11 31 11 33 -4 10 32 62 39 56 4 -5 29
-67 55 -139z"/>
<path d="M1297 17723 c-1 -1 -100 -3 -220 -4 -154 -2 -225 -7 -240 -16 -12 -6
-33 -17 -46 -23 -34 -15 -163 -149 -156 -160 4 -6 2 -10 -3 -10 -14 0 -30 -46
-40 -110 -15 -104 3 -223 44 -289 28 -45 116 -121 179 -157 l61 -34 495 -5
c272 -3 556 -6 632 -7 106 -2 137 -5 133 -15 -3 -7 -1 -15 4 -18 6 -4 7 -13 1
-23 -4 -9 -7 -26 -5 -36 6 -42 7 -116 1 -122 -3 -4 -2 -15 3 -25 6 -10 7 -20
2 -23 -4 -2 -6 -22 -5 -43 2 -21 5 -900 8 -1953 8 -2595 10 -2670 52 -2740 17
-28 62 -72 115 -112 136 -103 329 -113 458 -25 74 51 121 109 172 212 l25 50
1 630 c0 347 2 1443 2 2438 2 1347 5 1807 14 1808 6 0 287 2 625 5 374 3 619
8 626 14 7 5 15 7 18 3 4 -3 7 -2 7 4 0 6 14 16 30 23 17 7 30 16 30 21 0 5 5
9 11 9 26 0 147 153 153 194 1 6 4 16 8 21 12 21 21 82 20 135 -4 89 -91 254
-164 308 -9 7 -24 19 -33 28 -8 8 -15 13 -15 9 0 -3 -8 -1 -18 4 -19 10 -78
21 -152 28 -42 4 -2830 10 -2833 6z"/>
<path d="M23887 17724 c-1 -1 -28 -4 -60 -8 -32 -3 -68 -11 -80 -18 -12 -7
-25 -12 -28 -11 -9 3 -101 -75 -129 -109 -14 -17 -41 -60 -61 -97 l-35 -66 0
-2681 1 -2680 28 -42 c15 -23 24 -42 20 -42 -5 0 -3 -4 2 -8 6 -4 23 -24 38
-45 42 -55 75 -84 143 -122 l61 -34 324 -1 c582 -2 1223 0 1279 4 171 13 212
17 235 26 17 7 25 6 25 -1 0 -8 4 -8 13 -2 6 6 35 16 62 22 78 19 242 79 333
123 88 42 185 98 190 111 2 4 8 7 13 7 8 0 35 20 64 48 8 6 16 12 18 12 14 0
171 149 238 226 74 86 139 176 139 193 0 6 3 11 8 11 4 0 12 10 18 23 104 203
114 224 116 255 1 6 5 12 10 12 4 0 7 3 6 8 -2 6 23 94 40 142 6 19 12 40 16
65 10 60 18 102 23 115 22 66 22 443 0 545 -3 11 -8 42 -11 69 -4 27 -9 52
-11 56 -2 4 -6 17 -9 31 -3 13 -16 62 -31 109 -14 47 -27 90 -28 95 -2 6 -13
32 -25 59 -12 27 -22 51 -22 54 0 19 -133 252 -165 289 -5 7 -21 26 -35 43
-31 39 -134 143 -189 192 -22 20 -41 40 -41 44 0 4 18 24 41 45 85 77 141 134
177 178 20 25 39 48 42 51 26 24 152 240 149 256 0 4 3 10 8 13 22 15 113 273
128 361 3 19 8 42 10 50 14 48 20 149 20 335 0 214 -4 270 -30 385 -8 36 -17
74 -18 85 -2 11 -9 30 -16 43 -6 12 -10 22 -7 22 11 0 -50 155 -106 265 -96
192 -287 422 -453 545 -33 25 -61 48 -63 53 -2 4 -10 7 -18 7 -8 0 -14 4 -14
9 0 5 -8 11 -17 14 -22 7 -72 37 -91 55 -7 6 -20 12 -28 12 -8 0 -14 5 -14 11
0 5 -4 8 -8 5 -5 -3 -23 4 -40 15 -18 10 -39 19 -47 19 -8 0 -15 5 -15 10 0 6
-3 9 -7 8 -5 0 -15 2 -23 5 -22 9 -173 59 -185 61 -5 1 -15 5 -21 8 -6 4 -26
10 -45 13 -19 3 -45 8 -59 10 -96 20 -330 26 -1103 28 -356 2 -649 2 -650 1z
m1353 -819 c132 -7 205 -12 205 -15 0 -1 11 -4 25 -6 30 -5 64 -12 68 -14 1
-2 5 -3 10 -4 82 -21 176 -63 257 -114 65 -41 178 -162 223 -237 43 -74 95
-217 106 -298 4 -27 10 -59 12 -70 6 -29 5 -193 -1 -232 -3 -16 -7 -45 -11
-63 -8 -48 -42 -153 -55 -169 -6 -7 -9 -13 -5 -13 8 0 -35 -79 -76 -138 -73
-106 -213 -220 -348 -284 -45 -21 -118 -49 -140 -53 -3 -1 -18 -4 -35 -8 -16
-4 -41 -10 -55 -13 -14 -3 -266 -8 -562 -10 l-536 -5 1 71 c1 38 -1 70 -5 70
-4 0 -3 13 2 29 4 15 4 34 0 41 -5 7 -4 23 0 36 5 12 6 25 3 28 -8 8 -7 131 1
144 3 6 3 13 -2 16 -5 3 -7 20 -5 38 2 18 4 38 3 43 -5 104 -4 193 2 206 4 9
4 20 0 24 -11 11 -9 129 3 137 7 5 7 8 0 8 -12 0 -14 164 -3 176 4 4 4 12 0
18 -9 15 -9 136 0 142 5 3 5 11 1 17 -12 19 -10 157 2 157 7 0 7 3 0 8 -12 8
-14 142 -2 142 4 0 5 6 0 13 -11 17 -11 30 0 45 5 6 6 12 1 12 -10 0 -11 76
-1 86 3 3 3 12 0 20 -3 8 -1 14 3 15 5 0 54 3 109 6 55 2 101 6 102 6 4 5 595
-2 703 -8z m195 -2589 c196 -52 347 -128 440 -220 144 -142 238 -311 262 -471
10 -69 10 -307 0 -349 -5 -23 -10 -50 -12 -61 -1 -11 -3 -20 -4 -20 -2 0 -4
-7 -6 -15 -33 -166 -179 -368 -327 -452 -33 -18 -66 -39 -74 -46 -8 -7 -14
-11 -14 -8 0 4 -17 -2 -38 -13 -37 -19 -127 -48 -177 -57 -68 -12 -188 -16
-652 -19 -487 -3 -502 -3 -508 16 -4 10 -3 23 0 29 3 5 3 10 -2 10 -10 0 -9
62 1 78 4 7 3 12 -1 12 -5 0 -9 360 -9 799 l0 799 550 -3 c303 -2 560 -6 571
-9z"/>
<path d="M1068 10354 c-4 -3 -96 -8 -205 -9 -205 -3 -228 -7 -319 -53 -64 -33
-121 -85 -162 -147 -15 -22 -27 -42 -28 -45 0 -3 -4 -13 -7 -22 -4 -10 -10
-26 -13 -35 -16 -44 -12 -156 6 -217 31 -99 119 -206 200 -242 14 -6 27 -11
30 -10 3 0 20 -9 37 -22 l33 -23 1892 4 c1041 2 1908 6 1925 10 65 12 122 46
186 109 70 70 134 183 116 204 -6 8 -6 14 -1 18 6 3 9 41 7 83 -3 82 -24 149
-59 192 -44 54 -142 142 -163 148 -13 3 -23 10 -23 16 0 6 -2 8 -6 5 -3 -3
-26 1 -52 9 -31 9 -105 16 -214 18 -92 2 -172 6 -177 9 -5 4 -12 2 -15 -3 -4
-6 -18 -6 -34 -1 -16 4 -36 4 -45 -1 -9 -6 -18 -5 -21 0 -4 6 -18 6 -36 1 -17
-5 -30 -5 -30 -1 0 8 -42 7 -57 -2 -7 -4 -14 -4 -17 1 -2 4 -24 7 -48 5 -50
-4 -50 -4 -103 0 -22 2 -46 -1 -52 -6 -8 -6 -13 -6 -13 0 0 8 -55 10 -85 3 -5
-1 -12 -1 -15 0 -14 6 -100 4 -100 -3 0 -5 -6 -5 -12 0 -17 10 -258 11 -279 1
-9 -4 -20 -4 -23 0 -10 9 -937 10 -957 0 -9 -4 -19 -4 -23 0 -10 9 -316 9
-316 -1 0 -5 -6 -5 -12 -1 -17 11 -248 11 -248 1 0 -5 -5 -5 -12 -1 -17 10
-58 11 -64 2 -3 -5 -11 -5 -17 -1 -17 10 -47 11 -53 1 -3 -4 -10 -5 -17 -1
-15 9 -57 10 -57 1 0 -4 -10 -4 -22 1 -13 5 -33 5 -45 0 -13 -5 -25 -4 -28 1
-3 6 -15 6 -30 0 -13 -5 -27 -5 -30 -1 -3 5 -20 5 -39 1 -21 -4 -36 -4 -38 2
-2 5 -6 6 -10 2z"/>
<path d="M6598 10354 c-4 -3 -71 -7 -150 -8 -157 -2 -205 -14 -287 -70 -53
-35 -152 -136 -135 -136 4 0 -1 -10 -9 -23 -28 -43 -45 -122 -42 -193 3 -79
12 -113 51 -183 27 -50 113 -141 133 -141 6 0 11 -3 11 -7 0 -5 23 -19 51 -33
l50 -25 1842 0 c1530 0 2022 4 2022 15 0 1 7 3 16 5 44 8 95 44 149 103 33 36
60 71 60 78 0 8 4 14 8 14 8 0 19 29 40 100 2 8 5 51 5 95 0 63 -4 92 -23 135
-23 54 -97 159 -113 160 -4 0 -17 9 -29 20 -12 11 -28 20 -35 20 -7 0 -13 4
-13 9 0 4 -35 19 -77 31 -66 20 -104 24 -240 26 -89 1 -167 5 -172 9 -6 3 -11
3 -11 -2 0 -9 -57 -9 -66 0 -3 3 -16 2 -28 -3 -13 -4 -29 -4 -36 0 -8 5 -22 4
-31 -1 -11 -6 -20 -5 -24 1 -4 7 -12 7 -25 0 -12 -6 -21 -7 -25 0 -3 6 -15 6
-29 0 -13 -5 -26 -6 -29 -3 -9 8 -188 9 -194 0 -2 -4 -10 -4 -16 0 -17 11
-160 10 -174 0 -8 -6 -13 -6 -13 -1 0 13 -173 12 -182 -1 -5 -7 -8 -7 -8 0 0
6 -34 10 -85 10 -47 0 -85 -3 -85 -8 0 -4 -5 -5 -12 -1 -16 10 -90 12 -109 3
-9 -5 -19 -5 -23 -1 -10 9 -197 10 -217 0 -9 -4 -20 -4 -23 0 -10 9 -666 9
-666 -1 0 -5 -6 -5 -12 0 -17 10 -118 11 -118 0 0 -4 -6 -5 -12 -1 -17 11
-128 11 -128 1 0 -4 -8 -4 -17 1 -10 4 -36 7 -58 5 -49 -4 -44 -4 -133 0 -41
1 -76 -1 -79 -6 -2 -4 -9 -4 -16 0 -15 9 -127 10 -127 1 0 -4 -10 -4 -23 1
-13 5 -30 5 -39 0 -10 -6 -19 -6 -23 0 -4 7 -15 7 -30 1 -14 -5 -25 -6 -25 -2
0 6 -73 7 -90 2 -16 -6 -56 -4 -61 3 -3 4 -8 5 -11 1z"/>
<path d="M12338 10354 c-3 -3 -91 -7 -195 -9 -198 -3 -218 -6 -319 -58 -118
-60 -201 -190 -206 -323 -3 -61 12 -154 24 -154 6 0 8 -3 5 -6 -3 -4 -1 -16 5
-28 7 -11 12 -23 13 -26 1 -13 53 -79 89 -112 38 -36 83 -61 156 -89 29 -12
357 -14 1905 -14 1778 0 2045 3 2073 25 1 2 5 3 10 5 84 23 217 191 230 290
11 78 3 195 -12 195 -5 0 -7 3 -3 6 12 13 -46 108 -96 158 -61 60 -97 89 -97
78 0 -4 -7 2 -15 12 -8 11 -15 17 -15 14 0 -3 -21 1 -47 9 -30 9 -101 16 -190
18 -78 2 -147 6 -153 10 -5 3 -10 2 -10 -2 0 -8 -35 -9 -65 -3 -5 1 -13 2 -17
0 -19 -4 -99 -2 -104 3 -3 3 -17 2 -30 -3 -13 -5 -24 -6 -24 -2 0 4 -20 7 -45
7 -25 0 -45 -4 -45 -9 0 -5 -6 -4 -12 1 -7 5 -24 8 -38 6 -29 -4 -32 -4 -85 0
-22 2 -46 -1 -52 -6 -8 -6 -13 -6 -13 0 0 4 -24 7 -52 6 -29 -2 -57 -3 -63 -3
-138 5 -1598 3 -1602 -3 -2 -4 -12 -3 -21 1 -21 10 -143 9 -160 -2 -6 -4 -12
-4 -12 1 0 4 -29 8 -65 8 -36 0 -65 -4 -65 -8 0 -5 -5 -5 -12 -1 -16 10 -78
11 -105 2 -13 -4 -23 -4 -23 0 0 5 -17 7 -37 4 -21 -2 -42 -3 -48 -3 -5 0 -27
1 -47 3 -21 3 -38 1 -38 -4 0 -4 -10 -4 -23 1 -13 5 -30 5 -39 0 -10 -6 -19
-6 -22 0 -4 5 -18 6 -34 2 -15 -5 -36 -5 -47 -1 -11 4 -24 5 -30 2 -14 -9 -59
-8 -66 1 -3 4 -8 5 -11 1z"/>
</g>
</svg>
