<?xml version="1.0" encoding="UTF-8" standalone="no"?>
<!-- Created with Inkscape (http://www.inkscape.org/) -->

<svg
   version="1.1"
   id="svg14"
   width="5379"
   height="2442"
   viewBox="0 0 5379 2442"
   sodipodi:docname="takcojsemkrasny(1).png"
   xmlns:inkscape="http://www.inkscape.org/namespaces/inkscape"
   xmlns:sodipodi="http://sodipodi.sourceforge.net/DTD/sodipodi-0.dtd"
   xmlns="http://www.w3.org/2000/svg"
   xmlns:svg="http://www.w3.org/2000/svg">
  <defs
     id="defs18" />
  <sodipodi:namedview
     id="namedview16"
     pagecolor="#ffffff"
     bordercolor="#000000"
     borderopacity="0.25"
     inkscape:showpageshadow="2"
     inkscape:pageopacity="0.0"
     inkscape:pagecheckerboard="true"
     inkscape:deskcolor="#d1d1d1"
     showgrid="false" />
  <g
     inkscape:groupmode="layer"
     id="layer1"
     inkscape:label="path">
    <path
       id="path185"
       style="fill:#e21f09;stroke-width:2.5"
       d="m 2620.3974,1210.4639 c -1.3117,0.1677 -2.6338,0.2043 -3.9506,0.3042 -0.1428,0.014 -0.2865,0.021 -0.4283,0.043 -0.4833,0.073 -0.7371,0.1279 -1.1764,0.2405 -0.053,0.014 -0.6061,0.1957 -0.7112,0.1807 -0.9133,0.1735 -1.8261,0.348 -2.7367,0.5355 -1.3131,0.2822 -2.5775,0.7456 -3.8544,1.1544 -2.0708,0.6985 -4.2197,1.0953 -6.3669,1.4706 -2.8765,0.5184 -5.7729,0.9047 -8.6733,1.2575 -2.4286,0.3676 -4.8744,0.5586 -7.3222,0.7378 -2.3439,0.1188 -4.6787,0.3617 -7.0173,0.5523 -2.1433,0.1728 -4.2868,0.3528 -6.425,0.5798 -2.2494,0.2304 -4.4712,0.656 -6.6821,1.1202 -2.4979,0.6051 -5.0047,1.171 -7.5094,1.747 -2.6094,0.6044 -5.2079,1.2482 -7.7904,1.9586 -2.2864,0.673 -4.5435,1.4352 -6.8285,2.114 -2.5594,0.8033 -5.1518,1.4928 -7.7187,2.271 -2.3793,0.7868 -4.7953,1.4494 -7.2232,2.0671 -3.0106,0.6643 -5.9489,1.5816 -8.8386,2.6476 -2.8697,1.1455 -5.7478,2.2677 -8.6498,3.329 -2.7977,1.0027 -5.5933,2.0099 -8.4263,2.9092 -3.0848,0.9578 -6.2297,1.7021 -9.386,2.38 -3.3538,0.6932 -6.7145,1.3522 -10.0784,1.994 -3.505,0.7486 -7.0431,1.297 -10.5994,1.7292 -4.405,0.4796 -8.7954,1.0792 -13.1955,1.5994 -3.704,0.4173 -7.4108,0.8124 -11.1327,1.025 -3.2477,0.1687 -6.4872,0.5147 -9.7416,0.49 -2.3544,-0.068 -4.677,-0.42 -6.9229,-1.1233 -1.6843,-0.557 -3.2694,-1.3185 -4.6763,-2.399 -1.0241,-0.8777 -1.9073,-1.8872 -2.631,-3.0226 -0.5831,-0.9724 -1.2645,-1.9011 -1.7064,-2.9517 -0.1584,-0.3764 -0.3737,-1.0442 -0.4987,-1.4165 -0.5778,-1.6654 -1.0004,-3.3717 -1.3071,-5.1055 -0.2433,-2.0002 -0.4431,-4.0096 -0.5878,-6.0199 -0.092,-1.8368 -0.032,-3.6708 -0.1927,-5.5038 -0.2051,-1.569 -0.4209,-3.1365 -0.6348,-4.7044 -0.1532,-1.4357 -0.3714,-2.854 -0.6663,-4.2675 -0.3338,-1.7778 -0.7997,-3.5254 -1.2521,-5.2754 -0.5691,-2.2525 -1.121,-4.5094 -1.7186,-6.7546 -0.589,-2.0369 -1.0476,-4.1053 -1.4684,-6.1822 -0.4885,-2.6828 -1.2146,-5.3085 -2.0034,-7.9157 -0.8069,-2.4964 -1.6756,-4.9731 -2.5675,-7.4403 -0.8219,-2.267 -1.5993,-4.5503 -2.4643,-6.8014 -0.9691,-2.3527 -1.8045,-4.7506 -2.4173,-7.2201 -0.6027,-2.7768 -1.1471,-5.5659 -1.7343,-8.3461 -0.3918,-1.9134 -0.9237,-3.7946 -1.3344,-5.7034 -0.3311,-1.5994 -0.6126,-3.2083 -0.9323,-4.81 -0.305,-1.5576 -0.6419,-3.1085 -1.0364,-4.6458 -0.3903,-1.5764 -1.0157,-3.0711 -1.6995,-4.5386 -0.6319,-1.2864 -1.3247,-2.5416 -2.1469,-3.7157 -0.952,-1.3088 -2.0427,-2.16 -3.5001,-2.8362 -1.4362,-0.5851 -2.9835,-0.6156 -4.5093,-0.6105 -1.7088,0 -3.4088,0.1857 -5.0892,0.4849 -1.7083,0.3441 -3.4086,0.7258 -5.0949,1.1653 -1.8051,0.5058 -3.6004,1.0453 -5.3985,1.5749 -2.0063,0.6057 -4.0576,1.0362 -6.1048,1.4758 -1.9386,0.414 -3.8684,0.8672 -5.8038,1.295 -1.6956,0.3572 -3.39,0.7189 -5.0978,1.0132 -1.5717,0.1898 -3.1352,0.441 -4.708,0.6207 -2.2944,0.2966 -4.5729,0.7017 -6.8482,1.1172 -2.3384,0.4254 -4.6718,0.8688 -6.9846,1.4175 -1.9622,0.4914 -3.934,0.9431 -5.9073,1.3873 -1.8727,0.4164 -3.7486,0.8141 -5.6155,1.2568 -1.7733,0.4393 -3.5634,0.8064 -5.3499,1.187 -2.0406,0.4459 -4.1014,0.7911 -6.1593,1.1459 -3.174,0.5414 -6.3394,1.1301 -9.518,1.6438 -2.9213,0.4624 -5.8446,0.9161 -8.7545,1.4465 -2.2176,0.3922 -4.3992,0.9482 -6.5686,1.546 -1.6206,0.426 -3.2271,0.8982 -4.7951,1.4899 -1.5586,0.595 -3.0765,1.2772 -4.5555,2.0476 -1.273,0.6754 -2.5138,1.4091 -3.7051,2.2199 -1.1659,0.772 -2.1018,1.7804 -2.9007,2.917 -0.5839,0.9234 -1.0641,1.9044 -1.5193,2.8956 -0.486,1.0309 -0.9146,2.0822 -1.2718,3.1643 -0.3563,1.3038 -0.5903,2.646 -0.7305,3.9904 -0.083,1.015 -0.047,2.0343 -0.034,3.0512 -0.02,1.2182 0.1073,2.4307 0.1854,3.6448 0.1602,1.2635 0.4155,2.5176 0.7171,3.755 0.2681,1.0425 0.527,2.0872 0.7947,3.1297 0.3087,1.1137 0.513,2.251 0.7701,3.3775 0.2018,0.8242 0.3575,1.6572 0.5098,2.4916 0.1526,0.7703 0.3049,1.5408 0.4855,2.3051 0.1053,0.3836 0.1812,0.7737 0.2608,1.163 0.012,0.2307 -0.019,-0.4307 -0.024,-0.03 0,0.2509 -0.01,0.5019 -0.01,0.7528 0.2637,1.2161 0.1658,1.6017 0.8977,2.5031 0.2346,0.2889 0.5489,0.5032 0.81,0.7685 0.072,0.073 -0.2433,-0.088 -0.24,-0.1893 0.064,-2.0148 0.2912,-4.021 0.4369,-6.0315 -4.6135,2.6991 -0.7964,9.2236 3.8171,6.5245 v 0 c 0.2372,-2.0641 0.574,-4.1192 0.7116,-6.1923 0.01,-0.1216 -0.3669,-0.3191 -0.2852,-0.2287 0.2203,0.2437 0.5001,0.4323 0.7029,0.6907 0.6,0.7648 0.514,1.1553 0.708,2.1789 7e-4,-0.2389 0,-0.4778 0.01,-0.7168 0,-0.5252 -0.016,-1.0518 -0.1337,-1.566 -0.1001,-0.4614 -0.1835,-0.9268 -0.3097,-1.3824 -0.1535,-0.6313 -0.2699,-1.2711 -0.4018,-1.9072 -0.1723,-0.9433 -0.3512,-1.8849 -0.5767,-2.8175 -0.2726,-1.1917 -0.4914,-2.3955 -0.8178,-3.5742 -0.2616,-1.0181 -0.5141,-2.0384 -0.7763,-3.0563 -0.2015,-0.8057 -0.3446,-1.6244 -0.5138,-2.4372 -0.071,-1.0835 -0.1902,-2.165 -0.1702,-3.2522 -0.01,-0.739 -0.035,-1.4791 0,-2.2177 0.068,-0.8081 0.2357,-1.6082 0.3993,-2.4002 0.2503,-0.8056 0.6002,-1.5703 0.9494,-2.3371 0.2811,-0.6123 0.5714,-1.219 0.9046,-1.8053 0.2168,-0.389 0.55,-0.6697 0.9134,-0.9224 0.9405,-0.6481 1.9316,-1.2175 2.9369,-1.7587 1.2167,-0.6375 2.4681,-1.1944 3.7516,-1.6858 1.3376,-0.5194 2.7257,-0.8877 4.1087,-1.2649 1.9546,-0.5391 3.9191,-1.0452 5.9177,-1.3972 2.8592,-0.5233 5.7329,-0.9638 8.6033,-1.4204 3.2044,-0.5186 6.396,-1.1099 9.5956,-1.6568 2.1551,-0.3717 4.3131,-0.7348 6.4501,-1.2019 1.843,-0.3928 3.6895,-0.7722 5.519,-1.2251 1.8389,-0.4362 3.6871,-0.8264 5.5318,-1.2374 2.0021,-0.451 4.0028,-0.9088 5.9937,-1.4073 2.1835,-0.5195 4.388,-0.9321 6.5956,-1.3358 2.1128,-0.3859 4.2281,-0.7638 6.3579,-1.0443 1.7128,-0.1998 3.4177,-0.4613 5.128,-0.6811 1.8228,-0.316 3.6325,-0.6973 5.4421,-1.0811 1.9204,-0.4248 3.8354,-0.8737 5.7588,-1.2851 2.2318,-0.4794 4.4663,-0.9555 6.6535,-1.6153 1.7234,-0.5077 3.4443,-1.0238 5.1733,-1.5124 1.5003,-0.393 3.0142,-0.7291 4.5334,-1.0412 1.2449,-0.232 2.5074,-0.3557 3.7747,-0.3636 0.4969,0 1.0044,0.021 1.4961,-10e-4 -0.3193,-0.3443 0.3889,0.2539 0.3452,0.3069 0.5944,0.7544 0.9638,1.6694 1.4337,2.5009 0.4905,1.0428 0.9514,2.099 1.2266,3.2227 0.3637,1.4015 0.6622,2.8185 0.9434,4.2386 0.3282,1.6425 0.6145,3.293 0.9578,4.9326 0.4137,1.894 0.926,3.7651 1.3256,5.6626 0.6072,2.8742 1.1651,5.7586 1.7992,8.6268 0.7014,2.7623 1.602,5.4603 2.6943,8.0942 0.8501,2.2012 1.6013,4.439 2.4099,6.6556 0.8473,2.3413 1.6702,4.6922 2.4412,7.0597 0.7213,2.3805 1.3888,4.7766 1.8299,7.2276 0.4518,2.2255 0.944,4.4421 1.5722,6.6256 0.5938,2.2271 1.1386,4.4668 1.7046,6.7011 0.4229,1.635 0.8616,3.267 1.1711,4.9286 0.2595,1.2407 0.4458,2.482 0.5761,3.7438 0.2001,1.4669 0.3986,2.9338 0.5995,4.4005 0.1941,1.7711 0.017,3.5607 0.1786,5.3361 0.1677,2.2721 0.3826,4.5452 0.6862,6.8027 0.3813,2.1078 0.8893,4.1864 1.5932,6.2121 0.3077,0.8927 0.4676,1.4164 0.8618,2.2961 0.5989,1.3363 1.4149,2.5576 2.1884,3.7954 1.2648,1.8816 2.6395,3.4963 4.4205,4.9186 0.9282,0.6811 1.1144,0.8547 2.1286,1.4437 1.5316,0.8896 3.1866,1.5443 4.8553,2.1245 1.2322,0.3711 1.5194,0.4861 2.7983,0.7526 2.0722,0.4318 4.1918,0.6163 6.3034,0.7016 3.411,0.01 6.8066,-0.3001 10.2099,-0.5025 3.8731,-0.2249 7.7314,-0.6266 11.5857,-1.0648 4.4088,-0.5217 8.8082,-1.1213 13.2219,-1.6026 3.7243,-0.4549 7.4309,-1.0252 11.102,-1.8076 3.4217,-0.653 6.84,-1.3231 10.2512,-2.029 3.3923,-0.7307 6.7721,-1.5329 10.0867,-2.5664 2.9352,-0.9346 5.8345,-1.9721 8.733,-3.014 2.9095,-1.0646 5.7974,-2.1851 8.6733,-3.3376 2.6413,-0.9782 5.3296,-1.8093 8.0837,-2.4126 2.5378,-0.647 5.0644,-1.3377 7.5522,-2.159 2.5528,-0.7751 5.1324,-1.4577 7.6776,-2.2586 2.2356,-0.6648 4.446,-1.4044 6.6804,-2.0716 2.4793,-0.6824 4.9742,-1.2996 7.4794,-1.8801 2.4591,-0.5656 4.9209,-1.1185 7.3723,-1.7168 1.9627,-0.4146 3.935,-0.796 5.9322,-1.0013 2.0734,-0.226 4.154,-0.3892 6.2326,-0.5616 2.3174,-0.1895 4.6313,-0.4295 6.9541,-0.5475 2.5683,-0.188 5.1347,-0.3913 7.6833,-0.7728 3.0311,-0.3688 6.0578,-0.7747 9.0639,-1.3155 2.4865,-0.436 4.9711,-0.9131 7.3699,-1.7178 1.0202,-0.3271 2.0302,-0.6983 3.0724,-0.9493 0.8859,-0.1825 1.774,-0.3519 2.6625,-0.5206 0.5614,-0.1199 1.1209,-0.298 1.4795,-0.3482 1.3901,-0.13 2.7943,-0.1273 4.1794,-0.3263 5.3117,-0.5959 4.469,-8.1079 -0.8427,-7.512 z m 449.5753,102.3901 c -0.6549,-1.9204 -0.6867,-3.9588 -0.8942,-5.9566 -0.2584,-2.5249 -0.564,-5.0421 -0.926,-7.5541 -0.3666,-2.1032 -0.6952,-4.212 -1.0144,-6.3228 -0.377,-2.2698 -0.6078,-4.5591 -0.9132,-6.8386 -0.3356,-2.386 -0.8426,-4.7428 -1.3557,-7.0955 -0.5228,-2.3705 -1.0684,-4.7361 -1.5788,-7.1093 -0.4958,-2.6841 -1.2111,-5.3156 -1.9487,-7.9407 -0.6409,-2.4713 -1.2112,-4.9611 -1.7982,-7.4459 -0.7199,-3.1065 -1.2515,-6.2519 -1.8625,-9.3806 -0.6043,-3.0546 -1.3526,-6.0785 -2.0746,-9.1069 -0.6907,-3.1401 -1.35,-6.287 -2.0633,-9.4221 -0.6993,-3.0766 -1.6454,-6.0878 -2.4672,-9.1319 -0.738,-2.7841 -1.0321,-5.6526 -1.2758,-8.5139 -0.2204,-3.2861 -0.3792,-6.5753 -0.6819,-9.8554 -0.3407,-3.554 -0.842,-7.0876 -1.4134,-10.6108 -0.4702,-2.7748 -1.0485,-5.5293 -1.5664,-8.2953 -0.5134,-2.9946 -1.1345,-5.9682 -1.8144,-8.9289 -0.7119,-3.055 -1.4718,-6.0985 -2.301,-9.1239 -0.7971,-2.8553 -1.7615,-5.6589 -2.8389,-8.4195 -0.8532,-2.1635 -1.9138,-4.2601 -3.3853,-6.074 -0.3184,-0.3925 -0.6689,-0.7579 -1.0034,-1.1368 -2.0033,-2.0536 -4.382,-3.6628 -6.8892,-5.0295 -2.1508,-1.1281 -4.4157,-1.9941 -6.7533,-2.6398 -2.218,-0.5793 -4.5269,-0.4916 -6.7983,-0.4643 -2.6651,-0.037 -5.3109,0.2656 -7.9337,0.7084 -2.6308,0.4834 -5.2401,1.0735 -7.8468,1.6706 -2.7015,0.5702 -5.3554,1.3284 -8.0245,2.0278 -2.725,0.6747 -5.3873,1.5707 -8.067,2.401 -3.2276,1.0394 -6.4454,2.1023 -9.6928,3.079 -3.5757,1.1304 -7.1925,2.1158 -10.8541,2.9237 -4.9886,1.0273 -10.0261,1.791 -15.0641,2.5284 -5.0983,0.6619 -10.1021,1.8453 -15.1057,2.9972 -5.7963,1.3863 -11.5902,2.7825 -17.3954,4.1313 -7.5313,1.7639 -15.0862,3.4262 -22.6074,5.2328 -6.7894,1.6418 -13.5398,3.434 -20.2937,5.214 -4.7661,1.1475 -9.5039,2.3973 -14.2151,3.7523 -5.6481,1.6406 -11.3309,3.1545 -17.0249,4.6263 -5.2466,1.3384 -10.4684,2.7701 -15.7156,4.1061 -5.3767,1.3853 -10.7595,2.7421 -16.1714,3.9835 -5.3856,1.2219 -10.7853,2.3783 -16.1573,3.6595 -4.929,1.2247 -9.8764,2.3683 -14.8496,3.3987 -5.2616,1.0498 -10.5271,2.0841 -15.8088,3.0288 -5.4688,0.9105 -10.9444,1.7823 -16.4213,2.6434 -5.3874,0.8507 -10.8088,1.4554 -16.2401,1.9386 -6.4583,0.4299 -12.9338,0.5655 -19.4034,0.7418 -4.4306,-0.016 -8.8578,-0.3008 -13.2804,-0.5538 -4.6577,-0.2807 -9.3153,-0.5634 -13.9744,-0.8209 -5.326,-0.31 -10.6613,-0.3566 -15.9946,-0.3782 -5.1726,-0.014 -10.2948,0.7114 -15.3796,1.5834 -3.5257,0.7189 -7.0539,1.4073 -10.6066,1.9782 -2.8506,0.5099 -5.7222,0.8933 -8.5737,1.3955 -1.8924,0.3104 -3.7596,0.7497 -5.6345,1.1482 -1.2548,0.2654 -2.5053,0.5572 -3.7754,0.7413 -0.3939,-0.01 0.2861,0.024 0.3325,0.03 -2.4027,-0.3507 -3.5181,0.8677 -4.4171,2.8237 -0.1826,0.3974 -0.091,0.8699 -0.1362,1.3049 0.2098,5.3409 7.7631,5.0441 7.5532,-0.2968 v 0 c -0.049,0.3528 0.017,0.7416 -0.1459,1.0586 -0.8546,1.6678 -1.9252,2.9172 -4.0934,2.5663 0.6694,0.095 1.3442,0.096 2.0139,-0.01 1.4252,-0.2138 2.8336,-0.5176 4.2411,-0.8252 1.7906,-0.3812 3.5737,-0.8018 5.3811,-1.0988 2.8103,-0.5019 5.6445,-0.8655 8.454,-1.3753 3.5793,-0.5755 7.1358,-1.2611 10.6867,-1.9914 4.6518,-0.8004 9.3365,-1.4828 14.0694,-1.4744 5.2044,0.021 10.4107,0.064 15.6078,0.3667 4.6544,0.2573 9.3073,0.5398 13.9603,0.8201 4.6347,0.2648 9.2744,0.5649 13.9178,0.5633 6.6246,-0.1807 13.2556,-0.3186 19.8681,-0.7688 5.5997,-0.4995 11.1892,-1.1227 16.7436,-2.0005 5.5293,-0.8695 11.0575,-1.749 16.5785,-2.6698 5.3494,-0.9575 10.6826,-2.0037 16.0117,-3.068 5.0465,-1.0464 10.0676,-2.2045 15.0694,-3.4477 5.3506,-1.2768 10.7296,-2.4261 16.0936,-3.6446 5.4702,-1.2553 10.9115,-2.625 16.3462,-4.0258 5.256,-1.3384 10.4868,-2.7717 15.7421,-4.1129 5.7603,-1.4889 11.5092,-3.0209 17.2231,-4.6804 4.6567,-1.3401 9.3408,-2.5717 14.0517,-3.7073 6.7004,-1.7661 13.3973,-3.5443 20.133,-5.1735 7.5027,-1.8028 15.0396,-3.4593 22.5523,-5.2198 5.8003,-1.3478 11.5894,-2.742 17.3806,-4.1279 4.8049,-1.1062 9.6083,-2.2513 14.5047,-2.8842 5.2186,-0.764 10.4365,-1.5573 15.6028,-2.6273 3.8435,-0.8532 7.6439,-1.8767 11.3979,-3.0654 3.2674,-0.9829 6.506,-2.0495 9.7527,-3.0973 2.5738,-0.7977 5.1302,-1.6611 7.7473,-2.3096 2.5925,-0.6804 5.1702,-1.418 7.7945,-1.9714 2.4684,-0.5654 4.9389,-1.1252 7.4292,-1.5872 2.2327,-0.385 4.4856,-0.6397 6.7556,-0.6015 1.5669,-0.019 3.172,-0.126 4.7143,0.1976 1.7884,0.4809 3.5125,1.1532 5.1601,2.0027 1.7559,0.9298 3.4109,2.0513 4.8519,3.427 0.5142,0.555 0.6929,0.7114 1.1304,1.3281 0.7808,1.1007 1.3428,2.3343 1.8407,3.5827 0.9843,2.5129 1.86,5.067 2.5892,7.6663 0.8021,2.9236 1.535,5.8654 2.2239,8.8177 0.6577,2.8606 1.2561,5.7341 1.7515,8.6277 0.507,2.7059 1.0712,5.4008 1.5349,8.1147 0.5446,3.3531 1.023,6.7158 1.3481,10.0982 0.3045,3.2618 0.4486,6.534 0.677,9.8016 0.2845,3.3098 0.6482,6.6242 1.5104,9.8424 0.7976,2.9456 1.7091,5.861 2.3937,8.8367 0.7199,3.1601 1.3807,6.3331 2.0809,9.4975 0.6982,2.9277 1.4224,5.8508 2.0087,8.8035 0.6307,3.2249 1.1777,6.4675 1.9248,9.6686 0.6113,2.5877 1.2041,5.1809 1.8775,7.753 0.6955,2.4749 1.3736,4.9546 1.8361,7.4863 0.5126,2.3799 1.0585,4.7526 1.5832,7.1298 0.4696,2.1523 0.9378,4.3074 1.2491,6.4896 0.312,2.3212 0.5459,4.6527 0.9312,6.9638 0.3166,2.0934 0.6397,4.1853 1.0066,6.2706 0.3482,2.4157 0.6428,4.8363 0.89,7.2646 0.2702,2.5448 0.3693,5.1294 1.2432,7.5654 1.6954,5.0691 8.8641,2.6715 7.1688,-2.3975 z" />
  </g>
</svg>
