<?xml version="1.0" standalone="no"?>
<!DOCTYPE svg PUBLIC "-//W3C//DTD SVG 20010904//EN"
 "http://www.w3.org/TR/2001/REC-SVG-20010904/DTD/svg10.dtd">
<svg version="1.0" xmlns="http://www.w3.org/2000/svg"
 width="2048.000000pt" height="667.000000pt" viewBox="0 0 2048.000000 667.000000"
 preserveAspectRatio="xMidYMid meet">

<g transform="translate(0.000000,667.000000) scale(0.100000,-0.100000)"
fill="#000000" stroke="none">
<path d="M5065 6418 c-79 -21 -159 -92 -199 -178 -21 -45 -21 -47 -24 -1580
-2 -1016 1 -1568 8 -1633 21 -199 51 -307 135 -482 162 -338 477 -582 870
-671 109 -25 411 -30 527 -10 284 51 488 157 689 356 231 228 352 496 379 835
7 86 10 640 8 1630 l-3 1500 -26 55 c-31 66 -94 131 -157 162 -38 18 -63 23
-127 23 -134 -1 -227 -60 -281 -178 l-29 -62 -5 -1590 c-5 -1486 -6 -1594 -23
-1650 -71 -239 -229 -397 -455 -456 -57 -15 -110 -20 -202 -20 -139 0 -190 8
-298 51 -189 76 -306 210 -365 417 l-22 78 -5 1590 -5 1590 -21 46 c-68 145
-216 216 -369 177z"/>
<path d="M9523 6416 c-82 -27 -152 -93 -196 -186 l-22 -45 0 -2015 0 -2015 29
-63 c19 -41 46 -78 78 -107 89 -80 22 -75 1107 -75 933 0 967 1 1009 20 67 30
106 66 148 133 35 55 39 70 42 140 4 68 1 84 -22 131 -33 67 -87 122 -158 161
l-53 30 -780 3 -780 2 -5 1838 c-5 1740 -6 1839 -23 1877 -25 57 -101 130
-161 156 -63 27 -157 34 -213 15z"/>
<path d="M14540 6421 c-84 -27 -136 -70 -184 -151 -34 -56 -62 -127 -181 -460
-36 -102 -77 -214 -90 -250 -102 -282 -137 -378 -168 -465 -20 -55 -92 -255
-161 -445 -341 -946 -419 -1161 -446 -1235 -36 -100 -181 -503 -267 -740 -35
-99 -84 -234 -108 -300 -72 -195 -78 -252 -35 -335 24 -47 65 -84 120 -109 45
-20 57 -21 1592 -21 1486 0 1548 1 1590 19 53 22 121 95 138 146 26 77 10 137
-145 565 -81 223 -153 423 -160 445 -7 22 -50 141 -95 265 -45 124 -104 288
-132 365 -27 77 -96 268 -153 425 -145 402 -290 804 -340 945 -43 122 -225
625 -343 950 -86 239 -141 322 -241 368 -49 21 -151 31 -191 18z m200 -1551
c103 -289 230 -643 316 -880 18 -52 81 -225 138 -385 57 -159 166 -461 241
-670 76 -209 138 -386 139 -392 1 -10 -200 -13 -959 -13 -759 0 -960 3 -959
13 1 6 39 113 84 237 93 257 115 317 310 860 78 217 162 451 187 520 25 69 74
206 109 305 36 99 77 216 93 260 16 44 50 139 76 210 85 236 97 267 105 258 4
-4 58 -150 120 -323z"/>
<path d="M648 6380 c-71 -21 -155 -99 -189 -174 -13 -29 -19 -64 -19 -122 0
-126 45 -199 167 -271 l48 -28 475 -5 475 -5 5 -1840 c6 -2067 -3 -1873 82
-1958 100 -99 233 -128 348 -76 68 32 113 76 153 154 l32 60 3 1832 2 1832
468 3 467 3 54 30 c105 58 182 197 166 301 -9 65 -61 158 -111 203 -86 76 6
71 -1368 70 -677 0 -1243 -4 -1258 -9z"/>
<path d="M17816 6370 c-63 -25 -129 -90 -164 -160 l-27 -55 0 -2005 0 -2005
28 -55 c35 -69 85 -120 145 -151 l47 -24 600 -3 c708 -3 765 1 985 80 181 65
325 159 469 307 347 357 438 934 224 1421 -66 153 -145 264 -258 367 l-74 67
57 51 c115 101 193 206 267 360 84 175 120 343 119 565 -1 157 -17 264 -60
403 -117 370 -407 665 -772 787 -196 65 -175 63 -887 67 -626 3 -652 2 -699
-17z m1205 -600 c362 -36 572 -251 596 -606 21 -328 -174 -593 -503 -680 -61
-16 -114 -18 -469 -19 l-400 0 -3 645 c-1 355 0 651 3 658 6 15 621 17 776 2z
m89 -1946 c83 -19 213 -82 273 -131 64 -54 145 -157 178 -228 78 -173 76 -416
-6 -589 -61 -128 -143 -211 -270 -272 -145 -69 -186 -73 -626 -74 -211 0 -392
0 -401 0 -17 0 -18 38 -18 655 l0 655 403 0 c325 0 414 -3 467 -16z"/>
<path d="M519 850 c-101 -13 -207 -87 -250 -177 -72 -149 -4 -327 156 -403
l63 -30 1421 0 c1393 0 1421 0 1473 20 62 23 134 91 170 160 18 36 23 60 23
125 0 97 -18 139 -90 210 -68 69 -111 87 -225 96 -116 10 -2663 9 -2741 -1z"/>
<path d="M4750 851 c-101 -15 -194 -82 -239 -173 -76 -152 -12 -330 149 -411
l45 -22 1425 -3 c1603 -3 1488 -8 1578 73 167 150 135 399 -64 500 -42 21 -78
30 -143 36 -104 9 -2687 9 -2751 0z"/>
<path d="M8978 850 c-49 -8 -133 -49 -167 -81 -166 -155 -109 -428 106 -509
53 -20 78 -20 1496 -20 1621 0 1494 -6 1586 76 106 95 136 235 78 356 -30 61
-94 125 -155 154 -20 9 -70 21 -112 25 -98 10 -2770 9 -2832 -1z"/>
</g>
</svg>
